<svg width="1335" height="807" viewBox="0 0 1335 807" fill="none" xmlns="http://www.w3.org/2000/svg">
<path d="M905.107 1H197.375C180.599 1 167 14.6041 167 31.3856V561.614C167 578.396 180.599 592 197.375 592H905.107C921.882 592 935.481 578.396 935.481 561.614V31.3856C935.481 14.6041 921.882 1 905.107 1Z" fill="#F2F6FB"/>
<path d="M167 31.3923C167 14.6071 180.61 1 197.363 1H906.637C923.406 1 937 14.6083 937 31.3923V67.8483H167V31.3923Z" fill="#E1E5F0"/>
<path d="M211.803 49.617C219.771 49.617 226.231 43.155 226.231 35.1838C226.231 27.2126 219.771 20.7507 211.803 20.7507C203.834 20.7507 197.375 27.2126 197.375 35.1838C197.375 43.155 203.834 49.617 211.803 49.617Z" fill="#FF5645"/>
<path d="M258.884 49.617C266.852 49.617 273.312 43.155 273.312 35.1838C273.312 27.2126 266.852 20.7507 258.884 20.7507C250.915 20.7507 244.456 27.2126 244.456 35.1838C244.456 43.155 250.915 49.617 258.884 49.617Z" fill="#FFCB3D"/>
<path d="M307.483 49.617C315.452 49.617 321.911 43.155 321.911 35.1838C321.911 27.2126 315.452 20.7507 307.483 20.7507C299.515 20.7507 293.055 27.2126 293.055 35.1838C293.055 43.155 299.515 49.617 307.483 49.617Z" fill="#3ABF7C"/>
<path d="M204.968 112.966H226.838C228.516 112.966 229.876 114.327 229.876 116.005V123.924C229.876 125.602 228.516 126.962 226.838 126.962H204.968C203.291 126.962 201.931 125.602 201.931 123.924V116.005C201.931 114.327 203.291 112.966 204.968 112.966ZM798.795 112.966H897.513C899.19 112.966 900.55 114.327 900.55 116.005V123.924C900.55 125.602 899.19 126.962 897.513 126.962H798.795C797.117 126.962 795.757 125.602 795.757 123.924V116.005C795.757 114.327 797.117 112.966 798.795 112.966ZM610.168 112.966H708.886C710.563 112.966 711.923 114.327 711.923 116.005V123.924C711.923 125.602 710.563 126.962 708.886 126.962H610.168C608.49 126.962 607.13 125.602 607.13 123.924V116.005C607.13 114.327 608.49 112.966 610.168 112.966ZM728.933 112.966H778.748C780.425 112.966 781.785 114.327 781.785 116.005V123.924C781.785 125.602 780.425 126.962 778.748 126.962H728.933C727.255 126.962 725.895 125.602 725.895 123.924V116.005C725.895 114.327 727.255 112.966 728.933 112.966Z" fill="#D8DEED"/>
<path d="M239.899 214.436H443.41C445.088 214.436 446.448 215.796 446.448 217.474V239.389C446.448 241.067 445.088 242.427 443.41 242.427H239.899C238.222 242.427 236.862 241.067 236.862 239.389V217.474C236.862 215.796 238.222 214.436 239.899 214.436ZM239.899 259.922H408.479C410.157 259.922 411.517 261.283 411.517 262.961V284.875C411.517 286.553 410.157 287.914 408.479 287.914H239.899C238.222 287.914 236.862 286.553 236.862 284.875V262.961C236.862 261.283 238.222 259.922 239.899 259.922ZM239.899 350.895H338.617C340.295 350.895 341.655 352.255 341.655 353.933V375.848C341.655 377.526 340.295 378.886 338.617 378.886H239.899C238.222 378.886 236.862 377.526 236.862 375.848V353.933C236.862 352.255 238.222 350.895 239.899 350.895ZM239.899 305.409H443.41C445.088 305.409 446.448 306.769 446.448 308.447V330.362C446.448 332.04 445.088 333.4 443.41 333.4H239.899C238.222 333.4 236.862 332.04 236.862 330.362V308.447C236.862 306.769 238.222 305.409 239.899 305.409Z" fill="#E1E5F0"/>
<path d="M454.382 438.369H641.113C650.894 438.369 654.639 439.426 658.352 441.412C662.064 443.399 664.978 446.313 666.963 450.027C668.949 453.741 670.006 457.487 670.006 467.271V479.445C670.006 489.229 668.949 492.975 666.963 496.689C664.978 500.403 662.064 503.317 658.352 505.304C654.639 507.29 650.894 508.348 641.113 508.348H454.382C444.601 508.348 440.856 507.29 437.143 505.304C433.431 503.317 430.517 500.403 428.532 496.689C426.546 492.975 425.489 489.229 425.489 479.445V467.271C425.489 457.487 426.546 453.741 428.532 450.027C430.517 446.313 433.431 443.399 437.143 441.412C440.856 439.426 444.601 438.369 454.382 438.369Z" fill="#3ABF7C"/>
<path d="M804.87 282.93V320.674C804.87 330.857 798.525 339.961 788.974 343.483C765.416 352.169 741.859 356.512 718.302 356.512C694.744 356.512 671.187 352.169 647.63 343.483C638.079 339.961 631.734 330.857 631.734 320.674V285.184L560.762 259.565C558.138 258.618 556.091 256.52 555.21 253.871C553.619 249.095 556.201 243.933 560.976 242.342L701.67 195.465C713.47 191.533 726.258 191.744 737.923 196.062L863.19 242.437C865.604 243.331 867.528 245.204 868.486 247.594C870.358 252.267 868.09 257.574 863.419 259.447L804.87 282.93Z" fill="#474BFF"/>
<path opacity="0.176986" d="M804.87 282.93V320.674C804.87 330.857 798.525 339.961 788.974 343.483C765.416 352.169 741.859 356.512 718.302 356.512C694.744 356.512 671.187 352.169 647.63 343.483C638.079 339.961 631.734 330.857 631.734 320.674V285.184L700.319 309.942C712.932 314.495 726.778 314.252 739.224 309.26L804.87 282.93Z" fill="#111844"/>
<path d="M829.929 316.189V275.053L717.455 249.307C715.411 248.839 714.133 246.802 714.601 244.757C715.068 242.712 717.105 241.434 719.149 241.902L834.573 268.323C836.299 268.718 837.523 270.254 837.523 272.025V316.189C841.519 317.718 844.357 321.591 844.357 326.126C844.357 330.035 842.249 333.451 839.108 335.299C839.383 335.795 839.59 336.234 839.73 336.615C846.354 354.638 854.768 373.748 835.552 374.725C824.51 375.287 822.725 362.431 830.194 336.16C826.059 334.704 823.095 330.761 823.095 326.126C823.095 321.591 825.933 317.718 829.929 316.189Z" fill="#474961"/>
<path d="M507.211 489H500.438V462.891L492.352 465.398V459.891L506.484 454.828H507.211V489ZM541.289 474.891C541.289 479.609 540.312 483.219 538.359 485.719C536.406 488.219 533.547 489.469 529.781 489.469C526.062 489.469 523.219 488.242 521.25 485.789C519.281 483.336 518.273 479.82 518.227 475.242V468.961C518.227 464.195 519.211 460.578 521.18 458.109C523.164 455.641 526.016 454.406 529.734 454.406C533.453 454.406 536.297 455.633 538.266 458.086C540.234 460.523 541.242 464.031 541.289 468.609V474.891ZM534.516 468C534.516 465.172 534.125 463.117 533.344 461.836C532.578 460.539 531.375 459.891 529.734 459.891C528.141 459.891 526.961 460.508 526.195 461.742C525.445 462.961 525.047 464.875 525 467.484V475.781C525 478.562 525.375 480.633 526.125 481.992C526.891 483.336 528.109 484.008 529.781 484.008C531.438 484.008 532.633 483.359 533.367 482.062C534.102 480.766 534.484 478.781 534.516 476.109V468ZM568.852 474.891C568.852 479.609 567.875 483.219 565.922 485.719C563.969 488.219 561.109 489.469 557.344 489.469C553.625 489.469 550.781 488.242 548.812 485.789C546.844 483.336 545.836 479.82 545.789 475.242V468.961C545.789 464.195 546.773 460.578 548.742 458.109C550.727 455.641 553.578 454.406 557.297 454.406C561.016 454.406 563.859 455.633 565.828 458.086C567.797 460.523 568.805 464.031 568.852 468.609V474.891ZM562.078 468C562.078 465.172 561.688 463.117 560.906 461.836C560.141 460.539 558.938 459.891 557.297 459.891C555.703 459.891 554.523 460.508 553.758 461.742C553.008 462.961 552.609 464.875 552.562 467.484V475.781C552.562 478.562 552.938 480.633 553.688 481.992C554.453 483.336 555.672 484.008 557.344 484.008C559 484.008 560.195 483.359 560.93 482.062C561.664 480.766 562.047 478.781 562.078 476.109V468ZM573.352 461.438C573.352 459.344 574.031 457.648 575.391 456.352C576.75 455.039 578.531 454.383 580.734 454.383C582.969 454.383 584.766 455.031 586.125 456.328C587.484 457.609 588.164 459.352 588.164 461.555V463.242C588.164 465.352 587.484 467.047 586.125 468.328C584.766 469.609 582.984 470.25 580.781 470.25C578.562 470.25 576.766 469.609 575.391 468.328C574.031 467.031 573.352 465.289 573.352 463.102V461.438ZM577.852 463.242C577.852 464.18 578.117 464.938 578.648 465.516C579.195 466.078 579.906 466.359 580.781 466.359C581.656 466.359 582.352 466.07 582.867 465.492C583.383 464.914 583.641 464.141 583.641 463.172V461.438C583.641 460.5 583.383 459.742 582.867 459.164C582.352 458.586 581.641 458.297 580.734 458.297C579.875 458.297 579.18 458.586 578.648 459.164C578.117 459.727 577.852 460.516 577.852 461.531V463.242ZM589.664 480.633C589.664 478.523 590.352 476.828 591.727 475.547C593.102 474.25 594.883 473.602 597.07 473.602C599.289 473.602 601.078 474.242 602.438 475.523C603.812 476.789 604.5 478.539 604.5 480.773V482.461C604.5 484.555 603.828 486.25 602.484 487.547C601.141 488.828 599.352 489.469 597.117 489.469C594.867 489.469 593.062 488.82 591.703 487.523C590.344 486.227 589.664 484.508 589.664 482.367V480.633ZM594.164 482.461C594.164 483.32 594.445 484.055 595.008 484.664C595.57 485.273 596.273 485.578 597.117 485.578C599.023 485.578 599.977 484.523 599.977 482.414V480.633C599.977 479.695 599.711 478.945 599.18 478.383C598.648 477.805 597.945 477.516 597.07 477.516C596.195 477.516 595.492 477.805 594.961 478.383C594.43 478.945 594.164 479.719 594.164 480.703V482.461ZM582.117 486.445L578.812 484.664L595.477 457.992L598.781 459.773L582.117 486.445Z" fill="white"/>
<g clip-path="url(#clip0)">
<path d="M770.996 433.62L770.678 433.819C769.492 434.633 769.167 436.237 769.929 437.456L823.57 521.431C824.385 522.617 825.988 522.942 827.207 522.18L827.525 521.981C828.711 521.166 829.036 519.563 828.274 518.344L774.666 434.422C773.871 433.15 772.268 432.825 770.996 433.62ZM908.628 586.371L808.003 586.371C806.45 586.371 805.191 587.63 805.191 589.184C805.191 590.737 806.45 591.997 808.003 591.997L908.628 591.997C910.181 591.997 911.441 590.737 911.441 589.184C911.441 587.63 910.181 586.371 908.628 586.371Z" fill="#FFCB3D"/>
<path d="M774.202 433.709C774.394 433.877 774.566 434.078 774.711 434.31L828.319 518.232C828.581 518.65 828.714 519.114 828.729 519.576L859.705 501.058L837.104 459.456L824.18 454.339C820.649 453.523 817.197 452.363 813.858 450.912C805.849 447.293 803.882 444.026 793.428 437.439C790.619 435.656 787.771 434.045 784.71 432.567C782.921 432.064 779.509 431.321 776.568 432.275C776.078 432.434 775.654 432.699 775.249 432.878C774.853 433.125 774.506 433.407 774.202 433.709ZM807.683 586.282C807.802 586.267 807.924 586.259 808.048 586.259L908.673 586.259C908.811 586.259 908.947 586.269 909.08 586.288L909.08 544.487L866.323 544.487C858.25 550.03 853.359 553.656 851.651 555.365C849.089 557.928 846.276 560.241 843.276 562.304C835.964 567.18 832.151 567.117 821.026 572.493C818.026 573.931 815.151 575.494 812.276 577.307C809.401 579.12 808.464 581.058 807.714 584.058C807.589 584.558 807.589 585.059 807.526 585.496C807.526 585.785 807.582 586.046 807.683 586.282Z" fill="#474961"/>
<path d="M843.17 480.59L834.224 453.137C832.721 448.524 834.745 443.497 839.025 441.213L858.14 431.013C867.614 416.222 880.706 406.534 898.973 413.95C899.537 414.179 900.12 414.424 900.721 414.685L900.191 414.379C930.836 397.22 949.763 387.654 956.97 385.682C964.177 383.71 971.495 386.57 978.922 394.261L1056.59 502.828C1103.87 505.652 1127.57 519.573 1127.69 544.593C1127.81 569.614 1114.41 584.877 1087.49 590.385C1060.94 592.605 1039.13 591.838 1022.04 588.086C1002.68 589.128 986.109 586.573 972.319 580.421C950.155 570.535 929.432 548.793 910.149 515.195L909.186 545.043H843.916C840.464 545.043 837.666 542.244 837.666 538.792C837.666 538.653 837.671 538.514 837.68 538.376C839.225 515.206 841.055 495.944 843.17 480.59Z" fill="#DE3190"/>
<path opacity="0.176986" d="M1022.18 588.078C1002.76 589.14 986.141 586.588 972.318 580.421C950.155 570.535 929.432 548.793 910.149 515.195L909.186 545.043H843.916C840.464 545.043 837.666 542.244 837.666 538.792C837.666 538.653 837.671 538.514 837.68 538.376C841.1 487.103 845.913 454.966 852.12 441.963C861.827 421.627 876.475 404.816 898.973 413.95C899.769 414.273 900.603 414.628 901.474 415.015L943.417 439.16L948.118 459.996C959.165 520.337 973.262 558.151 990.409 573.439C998.003 580.208 1008.59 585.088 1022.18 588.078Z" fill="#444444"/>
<path d="M1126.68 425.271C1132.17 425.595 1138.58 427.164 1144.37 431.661C1151.18 436.926 1153.93 442.933 1158.9 455.046C1163.03 465.105 1166.58 474.008 1162.51 479.232C1159.52 483.055 1154.3 483.055 1150.79 482.817C1145.58 481.796 1140.74 481.415 1136.03 481.257L1124.81 505.671C1123.67 508.872 1115.74 528.95 1113.41 531.428C1106.74 538.561 1089.8 531.474 1062.59 510.168C1055.72 504.024 1053.81 496.671 1056.85 488.109C1058.59 482.636 1060.22 477.557 1061.73 472.874C1058.25 472.403 1053.21 471.139 1051.11 467.336C1047.91 461.534 1053.22 453.362 1059.2 444.285C1066.35 433.329 1070.2 427.96 1077.85 424.042C1082.56 421.644 1087.3 420.8 1091.62 420.781C1099.66 419.064 1112.14 418.659 1126.68 425.271Z" fill="#FFCB3D"/>
<path opacity="0.176986" d="M1061.51 472.974C1058.06 472.456 1053.35 471.143 1051.34 467.5C1048.14 461.698 1053.64 453.642 1059.43 444.45C1066.48 433.259 1070.42 427.721 1078.08 423.802C1082.5 421.551 1086.95 420.722 1091.06 420.676C1087.83 421.4 1085.35 422.328 1083.8 423.064C1079.88 424.906 1078.78 426.473 1075.91 431.595C1074.3 434.474 1069.5 448.267 1061.51 472.974Z" fill="#8C2A00"/>
<path d="M1022.6 440.827L1022.6 440.901L1066.13 441.493C1067.95 441.512 1069.46 440.016 1069.48 438.204L1069.57 433.076C1069.59 431.263 1068.09 429.751 1066.28 429.732L1022.83 429.187L1022.83 429.144L1018.17 432.21C1016.13 433.51 1016.08 436.383 1018.07 437.691L1022.6 440.827Z" fill="#474BFF"/>
<path d="M1115.38 410.011C1116.41 413.277 1118.09 417.536 1120.4 422.791C1117.52 421.814 1114.4 421.068 1111.05 420.553C1106.03 419.78 1103.78 419.709 1101.28 419.703L1100.81 415.854C1096.96 417.183 1097.18 417.062 1096.84 417.212C1094.11 417.883 1091.35 418.051 1088.6 417.845C1083.25 417.251 1077.4 407.179 1075.14 392.976C1074.95 391.776 1074.88 390.646 1074.82 389.516L1074.73 378.118C1074.68 375.486 1075.31 373.015 1076.55 370.827C1077.03 369.976 1077.64 369.131 1078.25 368.287C1085.2 359.7 1097.21 361.08 1099.45 361.448C1099.69 361.461 1099.94 361.536 1100.25 361.553C1102.54 362.173 1104.78 362.416 1107.09 362.537C1108.15 362.593 1108.92 363.384 1108.86 364.446L1108.57 380.769C1108.58 381.833 1113.73 380.834 1114.86 380.769C1117.87 380.676 1121.87 383.14 1122.96 386.264C1123.79 389.563 1123.24 394.106 1121.05 396.37C1120.26 397.163 1118.39 401.702 1115.43 409.986C1115.42 409.992 1115.4 410 1115.38 410.011ZM1058.99 441.416L1062.38 441.462C1063.89 444.282 1065.33 446.935 1066.56 449.175C1067.89 450.489 1068.83 451.412 1068.96 451.554L1113.47 499.092C1113.47 499.092 1114.88 485.002 1115.15 480.687C1127.2 481.685 1137.88 480.285 1150.79 482.816C1152.67 482.944 1155.11 482.95 1157.41 482.389C1156.53 489.872 1155.14 499.912 1152.76 511.66C1145.61 546.933 1139.26 550.604 1136.45 551.681C1134.06 552.6 1126.71 554.664 1113.48 545.351C1108.17 540.523 1102.82 535.334 1097.48 529.809C1082.43 514.266 1069.65 498.368 1058.78 482.717C1056.84 487.794 1055.76 491.468 1055.54 493.738C1055.32 495.944 1055.89 498.834 1057.01 502.828C1057.04 502.936 1056.9 502.936 1056.59 502.828L1047.82 490.696C1048.77 489.137 1050.66 483.861 1053.47 474.869C1049.26 468.486 1045.37 462.161 1041.76 455.937L1029.07 441.112C1027.91 439.708 1028.02 437.633 1029.45 436.421L1030.72 435.413C1031.29 434.928 1031.96 434.676 1032.64 434.635L1031.78 433.63C1030.63 432.226 1030.73 430.151 1032.16 428.94L1033.43 427.931C1034.36 427.144 1035.55 426.936 1036.6 427.278C1036.39 426.157 1036.76 424.965 1037.71 424.157L1038.98 423.149C1040.41 421.938 1042.49 422.18 1043.67 423.527L1044.99 425.072C1044 420.764 1044.35 416.684 1048.48 415.335C1048.48 415.335 1051.9 421.834 1056.05 429.625L1048.81 429.534L1058.99 441.416Z" fill="#F2A98A"/>
<path d="M1135.6 383.055C1135.83 384.253 1136.01 385.394 1136.25 386.538C1137.11 386.709 1138.04 386.945 1139.08 387.438C1139.81 387.789 1144.83 389.993 1146.91 394.359C1149.9 400.65 1146.69 410.623 1137.04 416.69C1136.53 416.976 1136.08 417.141 1136.08 417.141C1134.42 417.742 1132.86 417.785 1131.23 417.825C1130.91 417.809 1130.54 417.852 1130.54 417.852C1127.13 417.631 1123.49 417.394 1119.64 417.141C1117.49 416.794 1116.12 414.955 1115.52 411.623C1115.36 410.714 1115.29 409.601 1115.27 408.347C1115.1 406.034 1114.8 401.808 1114.59 398.424C1116.67 398.157 1118.6 397.194 1120.06 395.706C1122.36 393.448 1123.11 390.044 1122.08 386.923C1120.99 383.798 1117.87 381.318 1114.86 381.411C1113.73 381.477 1112.65 381.858 1111.61 382.43C1110.31 383.364 1109.19 384.494 1108.49 385.96L1105.42 393.186L1105.47 393.232C1105.43 393.238 1105.39 393.242 1105.35 393.245C1099.75 393.828 1097.29 372.665 1085.34 369.034C1082.57 368.2 1079.56 368.489 1077.85 368.9C1082.99 358.963 1099.39 361.073 1099.71 361.089C1103.43 361.66 1106.9 362.59 1108.89 362.694C1118.74 363.461 1122.61 362.412 1127.48 365.171C1129.3 366.205 1130.98 367.545 1132.2 369.3C1135.49 373.886 1135.83 379.335 1135.6 383.055ZM1082.81 387.073C1082.19 386.915 1082.05 386.094 1082.51 385.68C1083.16 385.213 1084.18 384.766 1085.43 384.894C1088.1 385.159 1090.76 387.051 1087.79 387.522C1086.02 387.867 1084.04 387.45 1082.81 387.073ZM1072.21 386.267C1071.6 386.047 1071.51 385.229 1072.09 384.883C1072.8 384.482 1073.76 384.095 1075.13 384.354C1077.73 384.803 1080.25 386.938 1077.17 387.215C1075.28 387.367 1073.44 386.707 1072.21 386.267Z" fill="#482D1F"/>
<path d="M1077.3 389.622C1077.27 389.278 1077.52 388.976 1077.87 388.948C1078.21 388.919 1078.51 389.175 1078.54 389.519L1078.85 393.229L1078.85 393.307L1078.57 399.926C1078.59 400.002 1078.64 400.054 1078.72 400.066C1078.94 400.056 1079.16 400.061 1079.4 400.08C1079.59 400.094 1079.73 400.11 1080.06 400.151C1081.02 400.269 1081.44 400.271 1081.98 400.097C1082.31 399.992 1082.66 400.173 1082.77 400.502C1082.87 400.831 1082.69 401.183 1082.36 401.288C1081.6 401.533 1081.04 401.531 1079.91 401.392C1079.6 401.354 1079.47 401.339 1079.3 401.326C1079.1 401.31 1078.92 401.307 1078.75 401.317L1078.68 401.317C1077.95 401.279 1077.4 400.73 1077.32 400.034L1077.31 399.936L1077.6 393.293L1077.3 389.622Z" fill="#482D1F"/>
<path d="M1083.44 405.736C1083.88 405.681 1085.01 405.45 1085.27 404.767C1085.27 404.642 1085.4 404.457 1085.34 404.331C1085.16 404.015 1083.22 403.981 1083.22 403.981C1080.65 403.999 1080.03 403.863 1079.84 404.172C1079.77 404.359 1079.77 404.609 1080.2 405.179C1080.68 406.25 1082.75 405.849 1083.44 405.736Z" fill="#482D1F"/>
<path d="M1100.6 415.844L1105.77 413.987L1101.25 419.504L1100.6 415.844Z" fill="#482D1F"/>
<path d="M1076.35 394.371C1075.54 395.581 1073.57 392.598 1074.11 390.561C1074.28 389.693 1074.86 389.473 1075.3 389.433C1075.99 389.469 1076.71 390.008 1076.73 390.823C1076.86 391.894 1076.96 393.652 1076.35 394.371ZM1086.5 394.687C1085.62 395.893 1083.72 392.914 1084.26 390.877C1084.43 390.009 1085.01 389.789 1085.45 389.749C1086.13 389.785 1086.86 390.324 1086.88 391.139C1087.01 392.21 1087.17 393.971 1086.5 394.687Z" fill="#482D1F"/>
<path d="M989.414 404.194C987.796 405.37 987.436 407.64 988.612 409.258L1042.21 483.046C1043.39 484.665 1045.66 485.024 1047.27 483.848C1048.89 482.672 1049.25 480.402 1048.08 478.784L994.477 404.996C993.302 403.378 991.032 403.018 989.414 404.194Z" fill="#474961"/>
<path opacity="0.2" d="M1053.54 475.1C1050.72 484.142 1048.83 489.445 1047.87 491.009L1056.64 503.141C1056.95 503.249 1057.09 503.249 1057.06 503.141C1055.94 499.147 1055.37 496.257 1055.59 494.051C1055.82 491.755 1056.92 488.025 1058.89 482.861L1053.54 475.1Z" fill="#8C2A00"/>
<path d="M1114.3 465.74C1114.26 465.798 1114.18 465.917 1114.07 466.09C1113.89 466.381 1113.68 466.714 1113.47 467.082C1112.66 468.495 1111.97 469.984 1111.53 471.432C1110.34 475.288 1111.11 477.777 1114.6 478.684C1115.11 478.814 1115.41 479.326 1115.28 479.827C1115.15 480.328 1114.64 480.629 1114.13 480.499C1109.39 479.27 1108.27 475.633 1109.73 470.879C1110.23 469.281 1110.97 467.673 1111.85 466.149C1112.07 465.755 1112.29 465.397 1112.49 465.081C1112.61 464.889 1112.71 464.751 1112.76 464.675C1113.05 464.249 1113.64 464.142 1114.06 464.436C1114.49 464.73 1114.6 465.314 1114.3 465.74Z" fill="#482D1F"/>
</g>
<path d="M479.761 800.566C480.047 800.473 480.35 800.423 480.661 800.423H518.517C520.222 800.423 521.655 801.924 521.655 803.712C521.655 805.499 520.222 807 518.517 807H485.987H376.853C375.158 807 373.783 805.56 373.783 803.783C373.783 802.006 375.158 800.566 376.853 800.566H479.761Z" fill="#FFCB3D"/>
<path d="M485.953 800.566H480.661C480.35 800.566 480.047 800.616 479.761 800.709H376.853C376.357 800.709 375.889 800.832 375.475 801.05L374.466 754.775L425.527 755.537L435.204 726.932L480.083 741.19C482.324 749.174 484.633 757.158 486.942 765.214C488.165 769.42 489.387 773.554 490.609 777.689C494.412 779.257 497.672 780.683 499.981 781.752C504.395 783.748 508.131 785.602 512.205 788.382C512.205 788.382 515.737 790.663 517.706 793.942C518.317 795.012 518.861 796.224 519.2 797.507C519.336 798.077 519.336 798.647 519.404 799.146C519.383 799.614 519.282 800.138 519.153 800.637C518.947 800.59 518.734 800.566 518.517 800.566H485.965C485.995 800.464 486.009 800.361 486.007 800.255C486.005 800.361 485.987 800.464 485.953 800.566Z" fill="#474961"/>
<path opacity="0.176986" d="M486.073 800.566C486.12 800.404 486.127 800.237 486.094 800.066C486.026 799.494 486.026 798.922 485.89 798.421C485.071 794.99 482.479 792.13 480.979 790.629C477.909 788.556 474.84 786.697 471.498 785.053C459.425 778.762 455.946 778.833 448.034 773.186C444.76 770.827 441.759 768.182 438.962 765.179L427.227 755.599L425.622 755.576L435.311 726.932L480.191 741.19C482.432 749.174 484.741 757.158 487.05 765.214C488.272 769.42 489.495 773.554 490.717 777.689C494.52 779.257 497.78 780.683 500.089 781.752C504.503 783.748 508.238 785.602 512.313 788.382C512.313 788.382 515.844 790.663 517.814 793.942C518.425 795.012 518.968 796.224 519.308 797.507C519.444 798.077 519.444 798.647 519.512 799.146C519.49 799.622 519.386 800.155 519.255 800.661C519.017 800.599 518.77 800.566 518.517 800.566H486.073Z" fill="#444444"/>
<path d="M440.955 707.343C441.198 713.444 441.527 718.516 442 722.24C442.079 723.171 442.034 730.022 440.812 732.454C437.019 739.903 415.989 737.714 397.26 738.261C378.53 738.807 368.205 740.725 362.631 736.206C359.577 733.744 359.123 729.322 358.941 727.779C358.105 719.92 357.133 711.958 356.107 703.955C332.762 713.664 318.08 719.421 312.061 721.229C306.105 723.017 299.506 723.499 293.504 723.792C242.357 743.264 214.82 711.847 211.92 704.385C200.841 675.882 205.643 651.799 215.046 635.156C220.314 620.771 356.101 556.054 363.893 552.565C349.224 559.255 371.685 549.076 363.893 552.565C378.563 545.875 385.65 541.187 400.859 543.639C416.064 546.09 433.21 554.26 434.726 565.12C434.726 565.12 435.895 574.02 436.375 578.764C439.552 578.06 442.564 577.32 445.412 576.542C445.421 576.536 445.43 576.529 445.44 576.522C452.936 571.104 480.636 566.633 494.172 572.797C510.905 580.417 520.733 598.801 518.197 617.738C514.575 644.775 512.503 659.432 511.981 661.708C511.202 665.196 501.737 704.644 498.282 719.122C497.524 722.409 494.198 724.902 489.932 725.351C485.233 725.877 456.548 714.12 440.955 707.343Z" fill="#A339FF"/>
<path opacity="0.176986" d="M441.216 707.454C440.072 676.43 440.897 620.48 436.659 578.799C439.788 578.104 442.756 577.373 445.565 576.606C445.574 576.599 445.584 576.593 445.593 576.586C453.089 571.168 480.789 566.697 494.325 572.861C511.059 580.481 520.887 598.865 518.35 617.802V617.802C514.728 644.839 512.656 659.496 512.134 661.772C511.355 665.26 501.891 704.708 498.436 719.186C497.677 722.473 494.351 724.966 490.085 725.415C485.397 725.939 456.834 714.239 441.216 707.454V707.454ZM356.384 703.968C332.967 713.707 318.244 719.482 312.215 721.293C306.534 722.998 300.267 723.515 294.492 723.814C295.477 723.432 296.471 723.031 297.473 722.61C319.276 713.468 337.906 699.575 353.365 680.931V680.931C354.371 688.611 355.401 696.308 356.384 703.968Z" fill="#444444"/>
<path d="M286.798 590.562C249.584 609.72 226.504 623.49 217.557 631.873L214.858 633.28C201.243 614.302 195.736 588.604 198.336 556.186C191.832 554.518 186.255 552.811 183.707 551.56C178.611 549.06 177.232 543.588 179.568 535.146C181.526 527.033 185.486 517.627 191.448 506.926C198.534 494.209 208.532 493.838 214.984 494.687C220.62 490.289 248.09 489.789 253.243 490.884C261.351 492.67 273.375 495.172 279.963 505.422C282.078 508.617 283.062 511.723 283.574 513.943C283.574 513.943 284.558 517.049 285.256 520.433C286.862 528.171 290.046 555.254 286.798 590.562Z" fill="#FFCB3D"/>
<path d="M367.286 488.732L299.363 552.832C297.823 554.285 297.699 556.771 299.085 558.385C300.472 559.999 302.844 560.129 304.383 558.676L372.306 494.576C373.846 493.123 373.97 490.637 372.584 489.023C371.198 487.41 368.826 487.279 367.286 488.732Z" fill="#474961"/>
<path d="M343.54 510.033L302.997 482.604C300.478 480.9 297.192 481.119 294.9 483.146L255.207 518.236C252.327 520.782 251.962 525.292 254.391 528.31C254.798 528.816 255.269 529.26 255.793 529.629L301.242 561.731L344.383 521.373C347.194 518.743 347.439 514.224 344.93 511.279C344.522 510.8 344.055 510.381 343.54 510.033Z" fill="#474BFF"/>
<path d="M231.596 464.77C229.556 462.001 227.728 459.397 226.758 457.255C225.319 454.136 226.068 445.041 228.789 441.412C231.51 437.784 253.083 421.003 253.355 420.983C255.655 420.599 268.608 419.005 275.952 428.643C276.621 429.454 277.227 430.341 277.78 431.447C278.976 434.011 279.643 436.828 279.629 439.696L279.524 452.46C279.473 453.754 279.355 455.052 279.163 456.284C277.79 465.415 275.082 472.995 271.989 477.879C269.704 481.558 267.116 483.755 264.739 484C264.064 484.122 260.385 484.32 256.007 483.279C255.722 483.202 255.797 483.266 254.016 482.604L254.381 491.015C260.286 492.31 267.931 494.096 274.082 498.795C265.301 503.691 255.577 505.895 244.91 505.405C240.321 505.194 235.483 504.549 230.396 503.47C226.62 498.785 222.019 496.027 219.451 495.582C218.28 495.379 216.693 495.042 214.834 494.818C214.867 494.789 214.899 494.761 214.932 494.732C217.176 492.795 223.625 491.592 230.665 490.938L231.104 464.608L231.596 464.77ZM289.131 567.225C289.289 567.224 289.447 567.214 289.604 567.196C289.452 567.203 289.299 567.202 289.147 567.193C289.142 567.204 289.136 567.214 289.131 567.225ZM298.255 559.411L301.148 561.429L303.835 558.923C303.923 558.853 304.009 558.779 304.093 558.7L305.699 557.184L344.073 521.396C344.607 520.898 345.049 520.332 345.397 519.721L357.001 508.77C362.256 506.047 366.333 504.972 367.695 506.978C367.695 506.978 347.351 530.1 336.607 542.236C333.796 549.958 329.629 559.835 324.108 571.865C310.352 578.605 297.878 584.857 286.685 590.621C287.405 583.086 287.829 575.921 288.034 569.232C274.671 593.224 254.014 613.499 226.065 630.056C190.322 651.231 184.496 579.039 183.569 551.169C183.7 551.238 183.834 551.304 183.971 551.368C191.301 554.808 225.294 562.735 231.592 561.663C231.773 561.64 231.948 561.596 232.117 561.53L231.046 578.85L270.702 549.327C270.711 549.316 270.719 549.305 270.727 549.294L290.464 522.817C291.971 520.795 294.758 520.436 296.687 522.016C297.292 522.511 297.74 523.138 298.025 523.828L298.596 522.94C299.965 520.813 302.721 520.251 304.751 521.687C306.089 522.633 306.778 524.211 306.7 525.786C307.764 525.679 308.869 525.973 309.79 526.7L309.802 526.71C311.673 528.188 312.047 530.976 310.637 532.938C310.6 532.99 310.561 533.041 310.522 533.091L310.231 533.46C311.626 533.113 313.156 533.48 314.283 534.582C316.074 536.332 316.172 539.273 314.502 541.15L298.255 559.411ZM443.33 708.071C455.303 713.23 473.242 720.589 483.327 723.713L480.083 741.19L441.736 729.008C442.034 726.882 442.022 724.729 441.973 724.147C441.542 720.754 441.238 716.211 441.013 710.769C440.977 709.699 440.936 708.583 440.892 707.419L443.33 708.071ZM374.483 739.104C380.109 739.191 387.497 738.546 397.26 738.261C404.228 738.057 411.516 738.233 418.115 738.149L426.116 753.795L425.527 755.537L374.529 754.776L374.483 739.104Z" fill="#F2A98A"/>
<path opacity="0.2" d="M287.842 568.704C288.114 568.21 288.383 567.715 288.649 567.218C289.917 567.292 291.206 566.797 292.14 565.747L297.881 559.295L300.94 561.429L303.627 558.923C303.715 558.853 303.801 558.779 303.885 558.7L305.491 557.184L343.865 521.396C344.399 520.898 344.841 520.332 345.189 519.721L356.793 508.77C362.048 506.047 366.125 504.972 367.486 506.978C367.486 506.978 347.143 530.1 336.399 542.236C333.588 549.958 329.421 559.835 323.899 571.865C310.144 578.605 297.67 584.857 286.476 590.621C287.216 582.887 287.643 575.543 287.842 568.704Z" fill="#8C2A00"/>
<path d="M254.019 482.628L244.53 479.265L254.34 490.996L254.019 482.628Z" fill="#482D1F"/>
<path d="M264.844 421.316C268.655 422.338 272.66 424.403 275.702 428.396C276.372 429.207 276.978 430.094 277.53 431.2C278.058 432.33 278.482 433.51 278.791 434.722L244.24 447.351L248.671 422.957C255.281 421.948 260.672 421.401 264.844 421.316Z" fill="#482D1F"/>
<path d="M267.518 422.851C255.419 435.268 247.715 443.38 244.405 447.188C244.283 447.373 244.16 447.565 244.037 447.762C243.89 447.114 243.322 445.007 241.763 442.973C241.617 442.84 240.356 441.356 238.534 440.701C235.251 439.652 231.132 441.459 229.023 444.695C226.783 448.012 227.064 452.22 228.571 455.334C230.078 458.449 232.695 459.762 233.608 460.125L237.281 460.859L237.652 460.682C234.952 466.67 232.49 472.058 230.915 472.449C228.05 473.158 223.633 466.747 220.514 463.641C218.532 461.667 213.771 455.209 212.346 446.215C211.923 443.24 210.351 433.149 216.264 425.199C218.328 422.437 220.779 420.991 221.786 420.364C225.213 418.45 238.371 417.355 248.481 416.775C246.555 413.648 245.384 407.168 244.968 397.335C244.955 397.011 245.046 396.693 245.228 396.431C245.671 395.792 246.524 395.651 247.133 396.115C255.509 402.496 260.839 407.133 263.124 410.024C264.802 407.225 269.697 403.965 277.811 400.243C278.096 400.113 278.415 400.088 278.716 400.174C279.443 400.381 279.872 401.166 279.674 401.928C276.309 414.905 273.749 421.722 271.993 422.379C271.028 422.741 269.536 422.898 267.518 422.851Z" fill="#DE3190"/>
<path d="M276.211 454.951C276.358 454.08 277.132 453.378 277.958 453.461C278.507 453.493 278.944 453.891 279.214 454.874C279.585 457.355 277.209 460.682 276.36 459.24C275.754 458.352 276.024 456.254 276.211 454.951ZM261.239 454.087C261.386 453.216 262.16 452.514 262.986 452.597C263.535 452.628 263.972 453.026 264.243 454.01C264.613 456.491 262.237 459.818 261.389 458.375C260.782 457.488 261.053 455.39 261.239 454.087Z" fill="#482D1F"/>
<path d="M271.136 455.877L271.68 463.003C271.682 463.03 271.586 463.146 271.553 463.149C271.181 463.176 270.799 463.178 270.201 463.161C270.085 463.158 269.964 463.154 269.789 463.149C269.568 463.141 269.448 463.137 269.332 463.134C268.936 463.121 268.609 463.112 268.259 463.106C267.882 463.099 267.572 463.414 267.566 463.809C267.559 464.203 267.859 464.529 268.236 464.536C268.579 464.542 268.901 464.55 269.29 464.563C269.405 464.566 269.525 464.57 269.746 464.578C269.923 464.583 270.046 464.587 270.165 464.591C270.802 464.609 271.223 464.606 271.648 464.575C272.432 464.517 273.095 463.718 273.04 462.896L272.496 455.763C272.466 455.369 272.137 455.076 271.762 455.107C271.386 455.138 271.106 455.483 271.136 455.877Z" fill="#482D1F"/>
<path d="M267.201 468.627C266.71 468.448 265.515 467.963 265.4 467.254C265.39 467.112 265.308 466.903 265.439 466.821C265.756 466.44 266.596 466.737 267.844 467.004C270.06 467.414 271.839 467.427 271.839 467.427C271.839 467.427 271.234 468.618 270.845 468.934C270.086 469.849 267.905 468.934 267.201 468.627Z" fill="#482D1F"/>
<path d="M250.663 452.161L246.59 451.171C246.04 451.038 245.697 450.462 245.825 449.885C245.952 449.308 246.502 448.948 247.052 449.082L251.432 450.146C252.946 447.153 255.856 445.022 259.318 444.768C264.654 444.377 269.283 448.594 269.656 454.186C269.665 454.32 269.671 454.453 269.675 454.586L271.749 454.7C272.373 450.055 276.022 446.338 280.665 445.998C286.001 445.607 290.63 449.824 291.003 455.417C291.376 461.01 287.353 465.86 282.016 466.252C276.684 466.642 272.058 462.431 271.679 456.844L269.523 456.725C268.747 461.179 265.177 464.691 260.67 465.021C255.333 465.412 250.705 461.195 250.332 455.603C250.252 454.41 250.373 453.25 250.663 452.161ZM252.859 452.027C252.471 453.086 252.293 454.247 252.373 455.453C252.667 459.864 256.318 463.19 260.527 462.882C264.736 462.573 267.909 458.747 267.615 454.336C267.32 449.925 263.67 446.599 259.461 446.907C256.571 447.119 254.17 448.989 253.043 451.568C253.04 451.591 253.036 451.613 253.031 451.635C252.998 451.781 252.939 451.914 252.859 452.027ZM273.701 456.074C273.7 456.276 273.706 456.479 273.72 456.683C274.014 461.095 277.665 464.421 281.874 464.112C286.082 463.804 289.256 459.978 288.961 455.566C288.667 451.155 285.017 447.829 280.808 448.138C276.933 448.422 273.936 451.687 273.714 455.645C273.727 455.722 273.731 455.801 273.727 455.882C273.724 455.948 273.715 456.012 273.701 456.074Z" fill="#482D1F"/>
<path d="M353.998 681.427L348.118 621.734C348.06 621.145 347.557 620.716 346.995 620.777C346.433 620.838 346.024 621.365 346.082 621.954L351.962 681.647C352.02 682.236 352.523 682.664 353.085 682.604C353.647 682.543 354.056 682.016 353.998 681.427Z" fill="#482D1F"/>
<path fill-rule="evenodd" clip-rule="evenodd" d="M236.197 543.621C236.761 543.59 237.243 544.044 237.273 544.635L236.251 544.692C237.273 544.635 237.273 544.635 237.273 544.635L237.273 544.639L237.273 544.647L237.275 544.677C237.276 544.702 237.277 544.739 237.279 544.786C237.283 544.881 237.287 545.018 237.291 545.193C237.299 545.543 237.305 546.045 237.298 546.66C237.283 547.887 237.215 549.575 237 551.41C236.786 553.24 236.421 555.246 235.804 557.097C235.19 558.939 234.299 560.706 232.987 561.979C232.573 562.382 231.926 562.356 231.542 561.922C231.158 561.487 231.182 560.809 231.597 560.406C232.569 559.462 233.316 558.057 233.872 556.389C234.425 554.731 234.765 552.888 234.969 551.148C235.173 549.412 235.238 547.806 235.252 546.633C235.259 546.047 235.253 545.572 235.245 545.245C235.242 545.081 235.238 544.955 235.234 544.871C235.233 544.828 235.231 544.797 235.231 544.776L235.23 544.754L235.229 544.749C235.229 544.749 235.229 544.748 235.229 544.748M236.197 543.621C235.633 543.652 235.2 544.157 235.229 544.748Z" fill="#482D1F"/>
<path d="M1205.41 397.63C1222.58 397.383 1240.24 397.322 1258.39 397.448C1285.9 397.637 1281.83 400.025 1295.98 397.637C1304.59 396.184 1309.48 393.363 1311.98 393.756C1313.59 394.009 1314.22 395.589 1314.22 399.712C1314.22 406.739 1311.08 421.388 1304.8 443.66L1266.86 526.082L1252.73 564.208C1248.3 576.14 1237 584.123 1224.29 584.301L1134.09 585.559L1187.83 404.599C1189.09 400.368 1193 397.486 1197.41 397.543L1204.32 397.631C1204.68 397.635 1205.05 397.635 1205.41 397.63Z" fill="#FFCB3D"/>
<path d="M1269.55 597.185C1269.32 599.735 1267.17 601.734 1264.56 601.734H1255.72L1278.06 685.127C1278.04 685.439 1276.32 686.131 1274.01 686.751C1272.95 687.037 1271.87 687.275 1271.13 687.37C1270.39 687.465 1269.92 687.464 1269.88 687.32L1246.96 601.734H724.541L701.621 687.32C701.455 687.584 699.62 687.323 697.308 686.703C696.241 686.417 695.187 686.083 694.502 685.797C693.816 685.51 693.404 685.271 693.442 685.127L715.774 601.734H709.55C706.787 601.734 704.547 599.492 704.547 596.727C704.547 593.962 706.787 591.721 709.55 591.721H1260.84L1325.26 404.549C1326.15 401.934 1329 400.545 1331.62 401.445C1334.23 402.345 1335.62 405.194 1334.72 407.809L1269.55 597.185Z" fill="#E1E5F0"/>
<defs>
<clipPath id="clip0">
<rect width="635" height="592" fill="white" transform="translate(671)"/>
</clipPath>
</defs>
</svg>
